<mxfile host="app.diagrams.net" modified="2023-12-29T08:52:46.389Z" agent="Mozilla/5.0 (Macintosh; Intel Mac OS X 10_15_7) AppleWebKit/537.36 (KHTML, like Gecko) Chrome/120.0.0.0 Safari/537.36" etag="uB_keRI9GC8kKOpW2xuG" version="22.1.15" type="github">
  <diagram name="Page-1" id="VZDh278Wt5UdKUrzcfES">
    <mxGraphModel dx="1434" dy="1955" grid="1" gridSize="10" guides="1" tooltips="1" connect="1" arrows="1" fold="1" page="1" pageScale="1" pageWidth="827" pageHeight="1169" math="0" shadow="0">
      <root>
        <mxCell id="0" />
        <mxCell id="1" parent="0" />
        <mxCell id="DQOvFMF24zLV-i_NTMZE-4" style="edgeStyle=orthogonalEdgeStyle;rounded=0;orthogonalLoop=1;jettySize=auto;html=1;entryX=0.5;entryY=0;entryDx=0;entryDy=0;" parent="1" source="DQOvFMF24zLV-i_NTMZE-1" target="DQOvFMF24zLV-i_NTMZE-3" edge="1">
          <mxGeometry relative="1" as="geometry" />
        </mxCell>
        <mxCell id="DQOvFMF24zLV-i_NTMZE-1" value="Service Entry" style="rounded=0;whiteSpace=wrap;html=1;" parent="1" vertex="1">
          <mxGeometry x="360" y="60" width="120" height="60" as="geometry" />
        </mxCell>
        <mxCell id="DQOvFMF24zLV-i_NTMZE-2" value="Switch Adapter" style="swimlane;whiteSpace=wrap;html=1;" parent="1" vertex="1">
          <mxGeometry x="242" y="200" width="356" height="560" as="geometry" />
        </mxCell>
        <mxCell id="DQOvFMF24zLV-i_NTMZE-16" style="rounded=0;orthogonalLoop=1;jettySize=auto;html=1;entryX=0.5;entryY=0;entryDx=0;entryDy=0;exitX=0.5;exitY=1;exitDx=0;exitDy=0;fillColor=#d5e8d4;strokeColor=#82b366;strokeWidth=2;" parent="DQOvFMF24zLV-i_NTMZE-2" source="DQOvFMF24zLV-i_NTMZE-3" target="DQOvFMF24zLV-i_NTMZE-9" edge="1">
          <mxGeometry relative="1" as="geometry" />
        </mxCell>
        <mxCell id="epuK4Y_RtC_b2_PGxaGJ-13" value="header tag=old" style="edgeLabel;html=1;align=center;verticalAlign=middle;resizable=0;points=[];" parent="DQOvFMF24zLV-i_NTMZE-16" vertex="1" connectable="0">
          <mxGeometry x="0.1766" relative="1" as="geometry">
            <mxPoint as="offset" />
          </mxGeometry>
        </mxCell>
        <mxCell id="DQOvFMF24zLV-i_NTMZE-3" value="change&amp;nbsp; headers" style="rounded=0;whiteSpace=wrap;html=1;fillColor=#f5f5f5;strokeColor=#666666;fontColor=#333333;" parent="DQOvFMF24zLV-i_NTMZE-2" vertex="1">
          <mxGeometry x="118" y="60" width="120" height="60" as="geometry" />
        </mxCell>
        <mxCell id="DQOvFMF24zLV-i_NTMZE-13" style="edgeStyle=orthogonalEdgeStyle;rounded=0;orthogonalLoop=1;jettySize=auto;html=1;entryX=0.5;entryY=0;entryDx=0;entryDy=0;fillColor=#dae8fc;strokeColor=#6c8ebf;strokeWidth=2;" parent="DQOvFMF24zLV-i_NTMZE-2" source="DQOvFMF24zLV-i_NTMZE-5" target="DQOvFMF24zLV-i_NTMZE-11" edge="1">
          <mxGeometry relative="1" as="geometry" />
        </mxCell>
        <mxCell id="DQOvFMF24zLV-i_NTMZE-5" value="Route&lt;br&gt;tag=new" style="rhombus;whiteSpace=wrap;html=1;fillColor=#dae8fc;strokeColor=#6c8ebf;" parent="DQOvFMF24zLV-i_NTMZE-2" vertex="1">
          <mxGeometry x="38" y="190" width="80" height="80" as="geometry" />
        </mxCell>
        <mxCell id="DQOvFMF24zLV-i_NTMZE-6" style="rounded=0;orthogonalLoop=1;jettySize=auto;html=1;entryX=0.5;entryY=0;entryDx=0;entryDy=0;exitX=0.5;exitY=1;exitDx=0;exitDy=0;fillColor=#dae8fc;strokeColor=#6c8ebf;strokeWidth=2;" parent="DQOvFMF24zLV-i_NTMZE-2" source="DQOvFMF24zLV-i_NTMZE-3" target="DQOvFMF24zLV-i_NTMZE-5" edge="1">
          <mxGeometry relative="1" as="geometry" />
        </mxCell>
        <mxCell id="epuK4Y_RtC_b2_PGxaGJ-12" value="header&amp;nbsp; tag=new" style="edgeLabel;html=1;align=center;verticalAlign=middle;resizable=0;points=[];" parent="DQOvFMF24zLV-i_NTMZE-6" vertex="1" connectable="0">
          <mxGeometry x="0.2115" y="-3" relative="1" as="geometry">
            <mxPoint as="offset" />
          </mxGeometry>
        </mxCell>
        <mxCell id="DQOvFMF24zLV-i_NTMZE-14" value="" style="edgeStyle=orthogonalEdgeStyle;rounded=0;orthogonalLoop=1;jettySize=auto;html=1;entryX=0.5;entryY=0;entryDx=0;entryDy=0;exitX=0.5;exitY=1;exitDx=0;exitDy=0;fillColor=#d5e8d4;strokeColor=#82b366;strokeWidth=2;" parent="DQOvFMF24zLV-i_NTMZE-2" source="DQOvFMF24zLV-i_NTMZE-9" target="DQOvFMF24zLV-i_NTMZE-12" edge="1">
          <mxGeometry relative="1" as="geometry" />
        </mxCell>
        <mxCell id="DQOvFMF24zLV-i_NTMZE-9" value="Route&lt;br&gt;tag=old" style="rhombus;whiteSpace=wrap;html=1;fillColor=#d5e8d4;strokeColor=#82b366;" parent="DQOvFMF24zLV-i_NTMZE-2" vertex="1">
          <mxGeometry x="228" y="190" width="80" height="80" as="geometry" />
        </mxCell>
        <mxCell id="DQOvFMF24zLV-i_NTMZE-11" value="service new" style="rounded=0;whiteSpace=wrap;html=1;fillColor=#dae8fc;strokeColor=#6c8ebf;" parent="DQOvFMF24zLV-i_NTMZE-2" vertex="1">
          <mxGeometry x="18" y="390" width="120" height="60" as="geometry" />
        </mxCell>
        <mxCell id="DQOvFMF24zLV-i_NTMZE-12" value="service old" style="rounded=0;whiteSpace=wrap;html=1;fillColor=#d5e8d4;strokeColor=#82b366;" parent="DQOvFMF24zLV-i_NTMZE-2" vertex="1">
          <mxGeometry x="208" y="390" width="120" height="60" as="geometry" />
        </mxCell>
        <mxCell id="DQOvFMF24zLV-i_NTMZE-17" style="edgeStyle=orthogonalEdgeStyle;rounded=0;orthogonalLoop=1;jettySize=auto;html=1;entryX=0.5;entryY=0;entryDx=0;entryDy=0;" parent="1" source="DQOvFMF24zLV-i_NTMZE-18" edge="1">
          <mxGeometry relative="1" as="geometry">
            <mxPoint x="918" y="260" as="targetPoint" />
          </mxGeometry>
        </mxCell>
        <mxCell id="DQOvFMF24zLV-i_NTMZE-30" value="original traffic" style="edgeLabel;html=1;align=center;verticalAlign=middle;resizable=0;points=[];" parent="DQOvFMF24zLV-i_NTMZE-17" vertex="1" connectable="0">
          <mxGeometry x="-0.4591" y="1" relative="1" as="geometry">
            <mxPoint as="offset" />
          </mxGeometry>
        </mxCell>
        <mxCell id="DQOvFMF24zLV-i_NTMZE-18" value="Service Entry" style="rounded=0;whiteSpace=wrap;html=1;" parent="1" vertex="1">
          <mxGeometry x="858" y="60" width="120" height="60" as="geometry" />
        </mxCell>
        <mxCell id="DQOvFMF24zLV-i_NTMZE-19" value="Switch Adapter" style="swimlane;whiteSpace=wrap;html=1;" parent="1" vertex="1">
          <mxGeometry x="740" y="200" width="580" height="560" as="geometry" />
        </mxCell>
        <mxCell id="DQOvFMF24zLV-i_NTMZE-32" style="edgeStyle=orthogonalEdgeStyle;rounded=0;orthogonalLoop=1;jettySize=auto;html=1;entryX=0.5;entryY=0;entryDx=0;entryDy=0;strokeWidth=2;" parent="DQOvFMF24zLV-i_NTMZE-19" source="DQOvFMF24zLV-i_NTMZE-27" target="DQOvFMF24zLV-i_NTMZE-31" edge="1">
          <mxGeometry relative="1" as="geometry">
            <mxPoint x="177" y="340" as="targetPoint" />
          </mxGeometry>
        </mxCell>
        <mxCell id="DQOvFMF24zLV-i_NTMZE-27" value="Route&lt;br&gt;Default" style="rhombus;whiteSpace=wrap;html=1;fillColor=#f5f5f5;fontColor=#333333;strokeColor=#666666;" parent="DQOvFMF24zLV-i_NTMZE-19" vertex="1">
          <mxGeometry x="138" y="230" width="80" height="80" as="geometry" />
        </mxCell>
        <mxCell id="DQOvFMF24zLV-i_NTMZE-40" style="edgeStyle=orthogonalEdgeStyle;rounded=0;orthogonalLoop=1;jettySize=auto;html=1;entryX=0;entryY=0.5;entryDx=0;entryDy=0;exitX=0.5;exitY=1;exitDx=0;exitDy=0;strokeWidth=2;" parent="DQOvFMF24zLV-i_NTMZE-19" source="DQOvFMF24zLV-i_NTMZE-31" target="DQOvFMF24zLV-i_NTMZE-36" edge="1">
          <mxGeometry relative="1" as="geometry">
            <Array as="points">
              <mxPoint x="178" y="440" />
              <mxPoint x="70" y="440" />
              <mxPoint x="70" y="80" />
            </Array>
          </mxGeometry>
        </mxCell>
        <mxCell id="epuK4Y_RtC_b2_PGxaGJ-1" value="with special headers" style="edgeLabel;html=1;align=center;verticalAlign=middle;resizable=0;points=[];" parent="DQOvFMF24zLV-i_NTMZE-40" vertex="1" connectable="0">
          <mxGeometry x="-0.0872" y="-2" relative="1" as="geometry">
            <mxPoint x="-2" y="-24" as="offset" />
          </mxGeometry>
        </mxCell>
        <mxCell id="DQOvFMF24zLV-i_NTMZE-31" value="filter&lt;br&gt;change headers" style="shape=process;whiteSpace=wrap;html=1;backgroundOutline=1;fillColor=#f5f5f5;fontColor=#333333;strokeColor=#666666;" parent="DQOvFMF24zLV-i_NTMZE-19" vertex="1">
          <mxGeometry x="118" y="350" width="120" height="60" as="geometry" />
        </mxCell>
        <mxCell id="epuK4Y_RtC_b2_PGxaGJ-5" style="edgeStyle=orthogonalEdgeStyle;rounded=0;orthogonalLoop=1;jettySize=auto;html=1;entryX=0.5;entryY=0;entryDx=0;entryDy=0;fillColor=#dae8fc;strokeColor=#6c8ebf;strokeWidth=2;" parent="DQOvFMF24zLV-i_NTMZE-19" source="DQOvFMF24zLV-i_NTMZE-34" target="epuK4Y_RtC_b2_PGxaGJ-4" edge="1">
          <mxGeometry relative="1" as="geometry" />
        </mxCell>
        <mxCell id="DQOvFMF24zLV-i_NTMZE-34" value="Route&lt;br&gt;tag=old" style="rhombus;whiteSpace=wrap;html=1;fillColor=#dae8fc;strokeColor=#6c8ebf;" parent="DQOvFMF24zLV-i_NTMZE-19" vertex="1">
          <mxGeometry x="279" y="230" width="80" height="80" as="geometry" />
        </mxCell>
        <mxCell id="epuK4Y_RtC_b2_PGxaGJ-3" style="edgeStyle=orthogonalEdgeStyle;rounded=0;orthogonalLoop=1;jettySize=auto;html=1;entryX=0.5;entryY=0;entryDx=0;entryDy=0;fillColor=#d5e8d4;strokeColor=#82b366;strokeWidth=2;" parent="DQOvFMF24zLV-i_NTMZE-19" source="DQOvFMF24zLV-i_NTMZE-35" target="epuK4Y_RtC_b2_PGxaGJ-2" edge="1">
          <mxGeometry relative="1" as="geometry" />
        </mxCell>
        <mxCell id="DQOvFMF24zLV-i_NTMZE-35" value="Route&lt;br&gt;tag=new" style="rhombus;whiteSpace=wrap;html=1;fillColor=#d5e8d4;strokeColor=#82b366;" parent="DQOvFMF24zLV-i_NTMZE-19" vertex="1">
          <mxGeometry x="420.5" y="230" width="80" height="80" as="geometry" />
        </mxCell>
        <mxCell id="DQOvFMF24zLV-i_NTMZE-37" value="step 1" style="edgeStyle=orthogonalEdgeStyle;rounded=0;orthogonalLoop=1;jettySize=auto;html=1;entryX=0.5;entryY=0;entryDx=0;entryDy=0;strokeWidth=2;" parent="DQOvFMF24zLV-i_NTMZE-19" source="DQOvFMF24zLV-i_NTMZE-36" target="DQOvFMF24zLV-i_NTMZE-27" edge="1">
          <mxGeometry x="0.3846" relative="1" as="geometry">
            <mxPoint as="offset" />
          </mxGeometry>
        </mxCell>
        <mxCell id="DQOvFMF24zLV-i_NTMZE-39" style="rounded=0;orthogonalLoop=1;jettySize=auto;html=1;entryX=0.5;entryY=0;entryDx=0;entryDy=0;exitX=0.5;exitY=1;exitDx=0;exitDy=0;fillColor=#d5e8d4;strokeColor=#82b366;strokeWidth=2;" parent="DQOvFMF24zLV-i_NTMZE-19" source="DQOvFMF24zLV-i_NTMZE-36" target="DQOvFMF24zLV-i_NTMZE-35" edge="1">
          <mxGeometry relative="1" as="geometry" />
        </mxCell>
        <mxCell id="DQOvFMF24zLV-i_NTMZE-36" value="" style="ellipse;whiteSpace=wrap;html=1;aspect=fixed;" parent="DQOvFMF24zLV-i_NTMZE-19" vertex="1">
          <mxGeometry x="158" y="60" width="40" height="40" as="geometry" />
        </mxCell>
        <mxCell id="DQOvFMF24zLV-i_NTMZE-38" style="rounded=0;orthogonalLoop=1;jettySize=auto;html=1;entryX=0.5;entryY=0;entryDx=0;entryDy=0;exitX=0.5;exitY=1;exitDx=0;exitDy=0;fillColor=#dae8fc;strokeColor=#6c8ebf;strokeWidth=2;" parent="DQOvFMF24zLV-i_NTMZE-19" source="DQOvFMF24zLV-i_NTMZE-36" target="DQOvFMF24zLV-i_NTMZE-34" edge="1">
          <mxGeometry relative="1" as="geometry" />
        </mxCell>
        <mxCell id="epuK4Y_RtC_b2_PGxaGJ-2" value="service new" style="rounded=0;whiteSpace=wrap;html=1;fillColor=#d5e8d4;strokeColor=#82b366;" parent="DQOvFMF24zLV-i_NTMZE-19" vertex="1">
          <mxGeometry x="400.5" y="460" width="120" height="60" as="geometry" />
        </mxCell>
        <mxCell id="epuK4Y_RtC_b2_PGxaGJ-4" value="service old" style="rounded=0;whiteSpace=wrap;html=1;fillColor=#dae8fc;strokeColor=#6c8ebf;" parent="DQOvFMF24zLV-i_NTMZE-19" vertex="1">
          <mxGeometry x="259" y="460" width="120" height="60" as="geometry" />
        </mxCell>
        <mxCell id="epuK4Y_RtC_b2_PGxaGJ-7" style="edgeStyle=orthogonalEdgeStyle;rounded=0;orthogonalLoop=1;jettySize=auto;html=1;entryX=0.5;entryY=0;entryDx=0;entryDy=0;" parent="1" source="epuK4Y_RtC_b2_PGxaGJ-6" target="DQOvFMF24zLV-i_NTMZE-18" edge="1">
          <mxGeometry relative="1" as="geometry" />
        </mxCell>
        <mxCell id="epuK4Y_RtC_b2_PGxaGJ-6" value="Business System&lt;br&gt;（Trade）" style="rounded=0;whiteSpace=wrap;html=1;" parent="1" vertex="1">
          <mxGeometry x="858" y="-70" width="120" height="60" as="geometry" />
        </mxCell>
        <mxCell id="epuK4Y_RtC_b2_PGxaGJ-9" style="edgeStyle=orthogonalEdgeStyle;rounded=0;orthogonalLoop=1;jettySize=auto;html=1;entryX=0.5;entryY=0;entryDx=0;entryDy=0;" parent="1" source="epuK4Y_RtC_b2_PGxaGJ-8" target="DQOvFMF24zLV-i_NTMZE-1" edge="1">
          <mxGeometry relative="1" as="geometry" />
        </mxCell>
        <mxCell id="epuK4Y_RtC_b2_PGxaGJ-8" value="Business System&lt;br&gt;（Trade）" style="rounded=0;whiteSpace=wrap;html=1;" parent="1" vertex="1">
          <mxGeometry x="360" y="-70" width="120" height="60" as="geometry" />
        </mxCell>
        <mxCell id="H9CweTlwJGZuhMT8cae2-3" style="edgeStyle=orthogonalEdgeStyle;rounded=0;orthogonalLoop=1;jettySize=auto;html=1;entryX=0.5;entryY=0;entryDx=0;entryDy=0;" edge="1" parent="1" source="H9CweTlwJGZuhMT8cae2-1" target="H9CweTlwJGZuhMT8cae2-2">
          <mxGeometry relative="1" as="geometry" />
        </mxCell>
        <mxCell id="H9CweTlwJGZuhMT8cae2-1" value="Security Test" style="rounded=0;whiteSpace=wrap;html=1;" vertex="1" parent="1">
          <mxGeometry x="530" y="1120" width="120" height="60" as="geometry" />
        </mxCell>
        <mxCell id="H9CweTlwJGZuhMT8cae2-9" style="edgeStyle=orthogonalEdgeStyle;rounded=0;orthogonalLoop=1;jettySize=auto;html=1;entryX=0;entryY=0.5;entryDx=0;entryDy=0;" edge="1" parent="1" source="H9CweTlwJGZuhMT8cae2-2" target="H9CweTlwJGZuhMT8cae2-8">
          <mxGeometry relative="1" as="geometry" />
        </mxCell>
        <mxCell id="H9CweTlwJGZuhMT8cae2-10" value="&amp;nbsp;exist" style="edgeLabel;html=1;align=center;verticalAlign=middle;resizable=0;points=[];" vertex="1" connectable="0" parent="H9CweTlwJGZuhMT8cae2-9">
          <mxGeometry x="-0.1304" y="2" relative="1" as="geometry">
            <mxPoint as="offset" />
          </mxGeometry>
        </mxCell>
        <mxCell id="H9CweTlwJGZuhMT8cae2-13" style="edgeStyle=orthogonalEdgeStyle;rounded=0;orthogonalLoop=1;jettySize=auto;html=1;entryX=0.5;entryY=0;entryDx=0;entryDy=0;" edge="1" parent="1" source="H9CweTlwJGZuhMT8cae2-2" target="H9CweTlwJGZuhMT8cae2-4">
          <mxGeometry relative="1" as="geometry" />
        </mxCell>
        <mxCell id="H9CweTlwJGZuhMT8cae2-16" value="not exist&amp;nbsp;" style="edgeLabel;html=1;align=center;verticalAlign=middle;resizable=0;points=[];" vertex="1" connectable="0" parent="H9CweTlwJGZuhMT8cae2-13">
          <mxGeometry x="-0.2" y="-1" relative="1" as="geometry">
            <mxPoint as="offset" />
          </mxGeometry>
        </mxCell>
        <mxCell id="H9CweTlwJGZuhMT8cae2-2" value="&lt;div&gt;Whether medium-high risk vulnerabilities exist&lt;/div&gt;" style="rhombus;whiteSpace=wrap;html=1;" vertex="1" parent="1">
          <mxGeometry x="445" y="1250" width="290" height="80" as="geometry" />
        </mxCell>
        <mxCell id="H9CweTlwJGZuhMT8cae2-14" style="edgeStyle=orthogonalEdgeStyle;rounded=0;orthogonalLoop=1;jettySize=auto;html=1;entryX=0.5;entryY=0;entryDx=0;entryDy=0;" edge="1" parent="1" source="H9CweTlwJGZuhMT8cae2-4" target="H9CweTlwJGZuhMT8cae2-5">
          <mxGeometry relative="1" as="geometry" />
        </mxCell>
        <mxCell id="H9CweTlwJGZuhMT8cae2-4" value="submit the email for waf integration" style="rounded=0;whiteSpace=wrap;html=1;" vertex="1" parent="1">
          <mxGeometry x="530" y="1400" width="120" height="60" as="geometry" />
        </mxCell>
        <mxCell id="H9CweTlwJGZuhMT8cae2-15" style="edgeStyle=orthogonalEdgeStyle;rounded=0;orthogonalLoop=1;jettySize=auto;html=1;entryX=0.5;entryY=0;entryDx=0;entryDy=0;" edge="1" parent="1" source="H9CweTlwJGZuhMT8cae2-5" target="H9CweTlwJGZuhMT8cae2-6">
          <mxGeometry relative="1" as="geometry" />
        </mxCell>
        <mxCell id="H9CweTlwJGZuhMT8cae2-5" value="Approve and release to online environment" style="rounded=0;whiteSpace=wrap;html=1;" vertex="1" parent="1">
          <mxGeometry x="530" y="1520" width="120" height="60" as="geometry" />
        </mxCell>
        <mxCell id="H9CweTlwJGZuhMT8cae2-6" value="monthly security scaning" style="rounded=0;whiteSpace=wrap;html=1;" vertex="1" parent="1">
          <mxGeometry x="530" y="1660" width="120" height="60" as="geometry" />
        </mxCell>
        <mxCell id="H9CweTlwJGZuhMT8cae2-18" style="edgeStyle=orthogonalEdgeStyle;rounded=0;orthogonalLoop=1;jettySize=auto;html=1;entryX=1;entryY=0.5;entryDx=0;entryDy=0;exitX=0.5;exitY=0;exitDx=0;exitDy=0;" edge="1" parent="1" source="H9CweTlwJGZuhMT8cae2-7" target="H9CweTlwJGZuhMT8cae2-5">
          <mxGeometry relative="1" as="geometry" />
        </mxCell>
        <mxCell id="H9CweTlwJGZuhMT8cae2-7" value="fix" style="rounded=0;whiteSpace=wrap;html=1;" vertex="1" parent="1">
          <mxGeometry x="827" y="1660" width="120" height="60" as="geometry" />
        </mxCell>
        <mxCell id="H9CweTlwJGZuhMT8cae2-17" style="edgeStyle=orthogonalEdgeStyle;rounded=0;orthogonalLoop=1;jettySize=auto;html=1;entryX=1;entryY=0.5;entryDx=0;entryDy=0;" edge="1" parent="1" source="H9CweTlwJGZuhMT8cae2-8" target="H9CweTlwJGZuhMT8cae2-1">
          <mxGeometry relative="1" as="geometry">
            <Array as="points">
              <mxPoint x="887" y="1150" />
            </Array>
          </mxGeometry>
        </mxCell>
        <mxCell id="H9CweTlwJGZuhMT8cae2-8" value="fix" style="rounded=0;whiteSpace=wrap;html=1;" vertex="1" parent="1">
          <mxGeometry x="827" y="1260" width="120" height="60" as="geometry" />
        </mxCell>
        <mxCell id="H9CweTlwJGZuhMT8cae2-11" style="edgeStyle=orthogonalEdgeStyle;rounded=0;orthogonalLoop=1;jettySize=auto;html=1;entryX=-0.05;entryY=0.5;entryDx=0;entryDy=0;entryPerimeter=0;" edge="1" parent="1" source="H9CweTlwJGZuhMT8cae2-6" target="H9CweTlwJGZuhMT8cae2-7">
          <mxGeometry relative="1" as="geometry" />
        </mxCell>
        <mxCell id="H9CweTlwJGZuhMT8cae2-12" value="new vulnerabilities" style="edgeLabel;html=1;align=center;verticalAlign=middle;resizable=0;points=[];" vertex="1" connectable="0" parent="H9CweTlwJGZuhMT8cae2-11">
          <mxGeometry x="0.0409" relative="1" as="geometry">
            <mxPoint x="1" y="-10" as="offset" />
          </mxGeometry>
        </mxCell>
      </root>
    </mxGraphModel>
  </diagram>
</mxfile>
